<?xml version="1.0" encoding="iso-8859-1"?>
<!-- Generator: Adobe Illustrator 19.0.0, SVG Export Plug-In . SVG Version: 6.00 Build 0)  -->
<svg version="1.1" id="Layer_1" xmlns="http://www.w3.org/2000/svg" xmlns:xlink="http://www.w3.org/1999/xlink" x="0px" y="0px"
	 viewBox="0 0 512 512" style="enable-background:new 0 0 512 512;" xml:space="preserve">
<g>
	<path style="fill:#667D8C;" d="M342.78,321.085H30.373c-14.379,0-26.034-11.655-26.034-26.034V104.136
		c0-14.379,11.655-26.034,26.034-26.034H43.39c2.734,0,5.302,1.284,6.942,3.471l23.431,31.241H342.78
		c14.379,0,26.034,11.655,26.034,26.034v156.203C368.814,309.43,357.159,321.085,342.78,321.085"/>
	<polygon style="fill:#667D8C;" points="507.661,303.729 472.949,303.729 403.525,260.339 403.525,173.559 472.949,130.169 
		507.661,130.169 	"/>
</g>
<polygon style="fill:#485762;" points="368.814,260.339 403.525,260.339 403.525,173.559 368.814,173.559 "/>
<path style="fill:#344148;" d="M321.093,69.424h-78.119c-11.976,0-21.686-9.711-21.686-21.686V21.686
	C221.288,9.711,230.999,0,242.974,0h78.119c11.976,0,21.686,9.711,21.686,21.686v26.051
	C342.78,59.713,333.069,69.424,321.093,69.424"/>
<polygon style="fill:#485762;" points="195.254,52.068 221.288,52.068 221.288,17.356 179.382,17.356 91.119,112.814 
	138.561,112.814 "/>
<g>
	<path style="fill:#344148;" d="M316.746,173.559c0-14.379-11.654-26.034-26.034-26.034c-14.379,0-26.034,11.655-26.034,26.034
		c0,14.379,11.655,26.034,26.034,26.034C305.091,199.593,316.746,187.939,316.746,173.559"/>
	<polygon style="fill:#344148;" points="186.576,286.373 325.424,286.373 325.424,251.661 186.576,251.661 	"/>
	<polygon style="fill:#344148;" points="117.153,355.797 256,355.797 256,321.085 117.153,321.085 	"/>
</g>
<g>
	<path style="fill:#BDC3C7;" d="M73.763,512c-2.222,0-4.443-0.85-6.135-2.543c-3.393-3.393-3.393-8.878,0-12.271l112.814-112.814
		c3.393-3.393,8.878-3.393,12.271,0c3.393,3.393,3.393,8.878,0,12.271L79.898,509.457C78.206,511.15,75.984,512,73.763,512"/>
	<path style="fill:#BDC3C7;" d="M186.576,512c-4.79,0-8.678-3.879-8.678-8.678V390.508c0-4.799,3.888-8.678,8.678-8.678
		s8.678,3.879,8.678,8.678v112.814C195.254,508.121,191.367,512,186.576,512"/>
	<path style="fill:#BDC3C7;" d="M299.39,512c-2.222,0-4.443-0.85-6.135-2.543L180.441,396.644c-3.393-3.393-3.393-8.878,0-12.271
		c3.393-3.393,8.878-3.393,12.271,0l112.814,112.814c3.393,3.393,3.393,8.878,0,12.271C303.833,511.15,301.611,512,299.39,512"/>
</g>
<polygon style="fill:#667D8C;" points="151.864,390.508 221.288,390.508 221.288,355.797 151.864,355.797 "/>
<g>
	<path style="fill:#344148;" d="M39.051,260.339c4.79,0,8.678-3.879,8.678-8.678c0-4.799-3.888-8.678-8.678-8.678H4.339v17.356
		H39.051z"/>
	<path style="fill:#344148;" d="M65.085,286.373c0-4.799-3.888-8.678-8.678-8.678H4.339v17.356h52.068
		C61.197,295.051,65.085,291.172,65.085,286.373"/>
</g>
<g>
</g>
<g>
</g>
<g>
</g>
<g>
</g>
<g>
</g>
<g>
</g>
<g>
</g>
<g>
</g>
<g>
</g>
<g>
</g>
<g>
</g>
<g>
</g>
<g>
</g>
<g>
</g>
<g>
</g>
</svg>
